# This file uses centimeters as units for non-parametric coordinates.

mtllib LPiece.mtl
g default
v 1.253564 -0.050482 -1.944650
v 1.695506 -0.050482 -2.386591
v 1.739404 -0.050482 -2.423110
v 1.792359 -0.050482 -2.452415
v 1.852443 -0.050482 -2.471489
v 1.916477 -0.050482 -2.478120
v 1.980511 -0.050482 -2.471489
v 2.040595 -0.050482 -2.452415
v 2.093550 -0.050482 -2.423110
v 2.137448 -0.050482 -2.386591
v 2.173967 -0.050482 -2.342693
v 2.203271 -0.050482 -2.289738
v 2.222346 -0.050482 -2.229654
v 2.228977 -0.050482 -2.165620
v 2.222346 -0.050482 -2.101586
v 2.203271 -0.050482 -2.041502
v 2.173967 -0.050482 -1.988547
v 2.137448 -0.050482 -1.944649
v 1.492451 -0.050482 -1.299651
v 0.424612 -0.050482 -0.231813
v 0.388093 -0.050482 -0.187916
v 0.358789 -0.050482 -0.134961
v 0.339714 -0.050482 -0.074877
v 0.333083 -0.050482 -0.010843
v 0.339714 -0.050482 0.053192
v 0.358789 -0.050482 0.113275
v 0.388093 -0.050482 0.166231
v 0.424612 -0.050482 0.210128
v 2.137448 -0.050482 1.922963
v 2.173967 -0.050482 1.966861
v 2.203271 -0.050482 2.019816
v 2.222346 -0.050482 2.079901
v 2.228977 -0.050482 2.143935
v 2.222346 -0.050482 2.207969
v 2.203271 -0.050482 2.268053
v 2.173967 -0.050482 2.321008
v 2.137448 -0.050482 2.364906
v 2.093551 -0.050482 2.401425
v 2.040595 -0.050482 2.430729
v 1.980512 -0.050482 2.449804
v 1.916477 -0.050482 2.456434
v 1.852443 -0.050482 2.449803
v 1.792359 -0.050482 2.430729
v 1.739404 -0.050482 2.401425
v 1.695506 -0.050482 2.364905
v 1.253565 -0.050482 1.922964
v -0.459271 -0.050482 0.210128
v -0.495790 -0.050482 0.166231
v -0.525095 -0.050482 0.113275
v -0.544169 -0.050482 0.053192
v -0.550800 -0.050482 -0.010842
v -0.544169 -0.050482 -0.074877
v -0.525095 -0.050482 -0.134961
v -0.495790 -0.050482 -0.187916
v -0.459271 -0.050482 -0.231814
v 1.111934 -0.050482 -1.803019
v 1.111934 0.049518 -1.803019
v -0.459271 0.049518 -0.231814
v -0.495790 0.049518 -0.187916
v -0.525095 0.049518 -0.134961
v -0.544169 0.049518 -0.074877
v -0.550800 0.049518 -0.010842
v -0.544169 0.049518 0.053192
v -0.525095 0.049518 0.113275
v -0.495790 0.049518 0.166231
v -0.459271 0.049518 0.210128
v 1.253565 0.049518 1.922964
v 1.695506 0.049518 2.364905
v 1.739404 0.049518 2.401425
v 1.792359 0.049518 2.430729
v 1.852443 0.049518 2.449803
v 1.916477 0.049518 2.456434
v 1.980512 0.049518 2.449804
v 2.040595 0.049518 2.430729
v 2.093551 0.049518 2.401425
v 2.137448 0.049518 2.364906
v 2.173967 0.049518 2.321008
v 2.203271 0.049518 2.268053
v 2.222346 0.049518 2.207969
v 2.228977 0.049518 2.143935
v 2.222346 0.049518 2.079901
v 2.203271 0.049518 2.019816
v 2.173967 0.049518 1.966861
v 2.137448 0.049518 1.922963
v 0.424612 0.049518 0.210128
v 0.388093 0.049518 0.166231
v 0.358789 0.049518 0.113275
v 0.339714 0.049518 0.053192
v 0.333083 0.049518 -0.010843
v 0.339714 0.049518 -0.074877
v 0.358789 0.049518 -0.134961
v 0.388093 0.049518 -0.187916
v 0.424612 0.049518 -0.231813
v 1.492451 0.049518 -1.299651
v 2.137448 0.049518 -1.944649
v 2.173967 0.049518 -1.988547
v 2.203271 0.049518 -2.041502
v 2.222346 0.049518 -2.101586
v 2.228977 0.049518 -2.165620
v 2.222346 0.049518 -2.229654
v 2.203271 0.049518 -2.289738
v 2.173967 0.049518 -2.342693
v 2.137448 0.049518 -2.386591
v 2.093550 0.049518 -2.423110
v 2.040595 0.049518 -2.452415
v 1.980511 0.049518 -2.471489
v 1.916477 0.049518 -2.478120
v 1.852443 0.049518 -2.471489
v 1.792359 0.049518 -2.452415
v 1.739404 0.049518 -2.423110
v 1.695506 0.049518 -2.386591
v 1.253564 0.049518 -1.944650
vt 0.390928 0.482859
vt 0.268221 0.360152
vt 0.265369 0.356724
vt 0.263080 0.352588
vt 0.261591 0.347896
vt 0.261073 0.342895
vt 0.261591 0.337894
vt 0.263080 0.333201
vt 0.265369 0.329066
vt 0.268221 0.325638
vt 0.401989 0.191870
vt 0.436503 0.157355
vt 0.439932 0.154503
vt 0.444067 0.152214
vt 0.448760 0.150725
vt 0.453761 0.150207
vt 0.458762 0.150725
vt 0.463454 0.152215
vt 0.467590 0.154503
vt 0.471018 0.157355
vt 0.473870 0.160783
vt 0.476158 0.164919
vt 0.477648 0.169611
vt 0.478166 0.174612
vt 0.477648 0.179613
vt 0.476159 0.184306
vt 0.473870 0.188441
vt 0.471018 0.191870
vt 0.337250 0.325638
vt 0.334398 0.329066
vt 0.332109 0.333201
vt 0.330619 0.337894
vt 0.330102 0.342895
vt 0.330619 0.347896
vt 0.332109 0.352588
vt 0.334398 0.356724
vt 0.337250 0.360152
vt 0.420645 0.443547
vt 0.471018 0.493920
vt 0.473870 0.497348
vt 0.476159 0.501484
vt 0.477648 0.506176
vt 0.478166 0.511177
vt 0.477648 0.516178
vt 0.476159 0.520871
vt 0.473870 0.525006
vt 0.471018 0.528435
vt 0.467590 0.531287
vt 0.463454 0.533575
vt 0.458762 0.535065
vt 0.453761 0.535583
vt 0.448760 0.535065
vt 0.444067 0.533575
vt 0.439932 0.531287
vt 0.436504 0.528435
vt 0.401989 0.493920
vt 0.390928 0.482859
vt 0.268221 0.360152
vt 0.265369 0.356724
vt 0.263080 0.352588
vt 0.261591 0.347896
vt 0.261073 0.342895
vt 0.261591 0.337894
vt 0.263080 0.333201
vt 0.265369 0.329066
vt 0.268221 0.325638
vt 0.401989 0.191870
vt 0.436503 0.157355
vt 0.439932 0.154503
vt 0.444067 0.152214
vt 0.448760 0.150725
vt 0.453761 0.150207
vt 0.458762 0.150725
vt 0.463454 0.152215
vt 0.467590 0.154503
vt 0.471018 0.157355
vt 0.473870 0.160783
vt 0.476158 0.164919
vt 0.477648 0.169611
vt 0.478166 0.174612
vt 0.477648 0.179613
vt 0.476159 0.184306
vt 0.473870 0.188441
vt 0.471018 0.191870
vt 0.337250 0.325638
vt 0.334398 0.329066
vt 0.332109 0.333201
vt 0.330619 0.337894
vt 0.330102 0.342895
vt 0.330619 0.347896
vt 0.332109 0.352588
vt 0.334398 0.356724
vt 0.337250 0.360152
vt 0.420645 0.443547
vt 0.471018 0.493920
vt 0.473870 0.497348
vt 0.476159 0.501484
vt 0.477648 0.506176
vt 0.478166 0.511177
vt 0.477648 0.516178
vt 0.476159 0.520871
vt 0.473870 0.525006
vt 0.471018 0.528435
vt 0.467590 0.531287
vt 0.463454 0.533575
vt 0.458762 0.535065
vt 0.453761 0.535583
vt 0.448760 0.535065
vt 0.444067 0.533575
vt 0.439932 0.531287
vt 0.436504 0.528435
vt 0.401989 0.493920
vt 0.390928 0.482859
vt 0.268221 0.360152
vt 0.265369 0.356724
vt 0.263080 0.352588
vt 0.261591 0.347896
vt 0.261073 0.342895
vt 0.261591 0.337894
vt 0.263080 0.333201
vt 0.265369 0.329066
vt 0.268221 0.325638
vt 0.401989 0.191870
vt 0.436503 0.157355
vt 0.439932 0.154503
vt 0.444067 0.152214
vt 0.448760 0.150725
vt 0.453761 0.150207
vt 0.458762 0.150725
vt 0.463454 0.152215
vt 0.467590 0.154503
vt 0.471018 0.157355
vt 0.473870 0.160783
vt 0.476158 0.164919
vt 0.477648 0.169611
vt 0.478166 0.174612
vt 0.477648 0.179613
vt 0.476159 0.184306
vt 0.473870 0.188441
vt 0.471018 0.191870
vt 0.337250 0.325638
vt 0.334398 0.329066
vt 0.332109 0.333201
vt 0.330619 0.337894
vt 0.330102 0.342895
vt 0.330619 0.347896
vt 0.332109 0.352588
vt 0.334398 0.356724
vt 0.337250 0.360152
vt 0.420645 0.443547
vt 0.471018 0.493920
vt 0.473870 0.497348
vt 0.476159 0.501484
vt 0.477648 0.506176
vt 0.478166 0.511177
vt 0.477648 0.516178
vt 0.476159 0.520871
vt 0.473870 0.525006
vt 0.471018 0.528435
vt 0.467590 0.531287
vt 0.463454 0.533575
vt 0.458762 0.535065
vt 0.453761 0.535583
vt 0.448760 0.535065
vt 0.444067 0.533575
vt 0.439932 0.531287
vt 0.436504 0.528435
vt 0.401989 0.493920
vn 0.000000 1.000000 0.000000
vn 0.000000 1.000000 0.000000
vn 0.000000 1.000000 -0.000000
vn 0.000000 1.000000 0.000000
vn 0.000000 1.000000 0.000000
vn 0.000000 1.000000 0.000000
vn 0.000000 1.000000 0.000000
vn 0.000000 1.000000 0.000000
vn 0.000000 1.000000 0.000000
vn 0.000000 1.000000 0.000000
vn 0.000000 1.000000 0.000000
vn 0.000000 1.000000 0.000000
vn 0.000000 1.000000 0.000000
vn 0.000000 1.000000 -0.000000
vn 0.000000 1.000000 0.000000
vn 0.000000 1.000000 0.000000
vn 0.000000 1.000000 -0.000000
vn 0.000000 1.000000 -0.000000
vn 0.000000 1.000000 0.000000
vn 0.000000 1.000000 0.000000
vn 0.000000 1.000000 -0.000000
vn 0.000000 1.000000 -0.000000
vn 0.000000 1.000000 0.000000
vn 0.000000 1.000000 0.000000
vn 0.000000 1.000000 0.000000
vn 0.000000 1.000000 0.000000
vn 0.000000 1.000000 0.000000
vn 0.000000 1.000000 0.000000
vn 0.000000 1.000000 0.000000
vn 0.000000 1.000000 0.000000
vn 0.000000 1.000000 0.000000
vn 0.000000 1.000000 0.000000
vn 0.000000 1.000000 0.000000
vn 0.000000 1.000000 0.000000
vn 0.000000 1.000000 -0.000000
vn 0.000000 1.000000 -0.000000
vn 0.000000 1.000000 0.000000
vn 0.000000 1.000000 0.000000
vn 0.000000 1.000000 0.000000
vn 0.000000 1.000000 -0.000000
vn 0.000000 1.000000 0.000000
vn 0.000000 1.000000 -0.000000
vn 0.000000 1.000000 0.000000
vn 0.000000 1.000000 -0.000000
vn 0.000000 1.000000 0.000000
vn 0.000000 1.000000 -0.000000
vn 0.000000 1.000000 0.000000
vn 0.000000 1.000000 -0.000000
vn 0.000000 1.000000 0.000000
vn 0.000000 1.000000 0.000000
vn 0.000000 1.000000 0.000000
vn 0.000000 1.000000 0.000000
vn 0.000000 1.000000 0.000000
vn 0.000000 1.000000 -0.000000
vn 0.000000 1.000000 -0.000000
vn 0.000000 1.000000 0.000000
vn 0.000000 -1.000000 0.000000
vn 0.000000 -1.000000 0.000000
vn 0.000000 -1.000000 0.000000
vn 0.000000 -1.000000 0.000000
vn 0.000000 -1.000000 0.000000
vn 0.000000 -1.000000 0.000000
vn 0.000000 -1.000000 0.000000
vn 0.000000 -1.000000 0.000000
vn 0.000000 -1.000000 0.000000
vn 0.000000 -1.000000 0.000000
vn 0.000000 -1.000000 0.000000
vn 0.000000 -1.000000 0.000000
vn 0.000000 -1.000000 0.000000
vn 0.000000 -1.000000 0.000000
vn 0.000000 -1.000000 0.000000
vn 0.000000 -1.000000 0.000000
vn 0.000000 -1.000000 0.000000
vn 0.000000 -1.000000 0.000000
vn 0.000000 -1.000000 0.000000
vn 0.000000 -1.000000 0.000000
vn 0.000000 -1.000000 0.000000
vn 0.000000 -1.000000 0.000000
vn 0.000000 -1.000000 0.000000
vn 0.000000 -1.000000 0.000000
vn 0.000000 -1.000000 0.000000
vn 0.000000 -1.000000 0.000000
vn 0.000000 -1.000000 0.000000
vn 0.000000 -1.000000 0.000000
vn 0.000000 -1.000000 0.000000
vn 0.000000 -1.000000 0.000000
vn 0.000000 -1.000000 0.000000
vn 0.000000 -1.000000 0.000000
vn 0.000000 -1.000000 0.000000
vn 0.000000 -1.000000 0.000000
vn 0.000000 -1.000000 0.000000
vn 0.000000 -1.000000 0.000000
vn 0.000000 -1.000000 0.000000
vn 0.000000 -1.000000 0.000000
vn 0.000000 -1.000000 0.000000
vn 0.000000 -1.000000 0.000000
vn 0.000000 -1.000000 0.000000
vn 0.000000 -1.000000 0.000000
vn 0.000000 -1.000000 0.000000
vn 0.000000 -1.000000 0.000000
vn 0.000000 -1.000000 0.000000
vn 0.000000 -1.000000 0.000000
vn 0.000000 -1.000000 0.000000
vn 0.000000 -1.000000 0.000000
vn 0.000000 -1.000000 0.000000
vn 0.000000 -1.000000 0.000000
vn 0.000000 -1.000000 0.000000
vn 0.000000 -1.000000 0.000000
vn 0.000000 -1.000000 0.000000
vn 0.000000 -1.000000 0.000000
vn 0.000000 -1.000000 0.000000
vn 0.000000 -1.000000 0.000000
vn -0.707107 0.000000 -0.707107
vn -0.708724 0.000000 -0.705486
vn -0.707107 0.000000 -0.707107
vn -0.708724 0.000000 -0.705486
vn -0.827072 0.000000 -0.562096
vn -0.827073 0.000000 -0.562095
vn -0.919341 0.000000 -0.393463
vn -0.919341 0.000000 -0.393463
vn -0.979220 0.000000 -0.202800
vn -0.979220 0.000000 -0.202800
vn -1.000000 0.000000 0.000000
vn -1.000000 0.000000 0.000000
vn -0.979220 0.000000 0.202803
vn -0.979220 0.000000 0.202803
vn -0.919341 0.000000 0.393462
vn -0.919341 0.000000 0.393463
vn -0.827074 0.000000 0.562093
vn -0.827074 0.000000 0.562093
vn -0.708593 0.000000 0.705617
vn -0.708593 0.000000 0.705617
vn -0.707107 0.000000 0.707107
vn -0.707107 0.000000 0.707107
vn -0.701676 0.000000 0.712496
vn -0.701676 0.000000 0.712496
vn -0.562098 0.000000 0.827071
vn -0.562095 0.000000 0.827073
vn -0.393458 0.000000 0.919343
vn -0.393458 0.000000 0.919343
vn -0.202799 0.000000 0.979221
vn -0.202802 0.000000 0.979220
vn -0.000006 0.000000 1.000000
vn -0.000003 0.000000 1.000000
vn 0.202793 0.000000 0.979222
vn 0.202807 0.000000 0.979219
vn 0.393458 0.000000 0.919343
vn 0.393466 0.000000 0.919339
vn 0.562093 0.000000 0.827074
vn 0.562091 0.000000 0.827075
vn 0.707113 0.000000 0.707100
vn 0.707108 0.000000 0.707106
vn 0.827075 0.000000 0.562091
vn 0.827071 0.000000 0.562097
vn 0.919342 0.000000 0.393460
vn 0.919340 0.000000 0.393465
vn 0.979220 0.000000 0.202803
vn 0.979220 0.000000 0.202803
vn 1.000000 0.000000 0.000000
vn 1.000000 0.000000 0.000000
vn 0.979220 0.000000 -0.202801
vn 0.979220 0.000000 -0.202802
vn 0.919341 0.000000 -0.393461
vn 0.919341 0.000000 -0.393461
vn 0.827070 0.000000 -0.562099
vn 0.827070 0.000000 -0.562099
vn 0.708593 0.000000 -0.705617
vn 0.708593 0.000000 -0.705617
vn 0.708593 0.000000 -0.705617
vn 0.708593 0.000000 -0.705617
vn 0.827071 0.000000 -0.562097
vn 0.827073 0.000000 -0.562094
vn 0.919340 0.000000 -0.393464
vn 0.919341 0.000000 -0.393462
vn 0.979220 0.000000 -0.202803
vn 0.979220 0.000000 -0.202802
vn 1.000000 0.000000 0.000000
vn 1.000000 0.000000 0.000000
vn 0.979219 0.000000 0.202805
vn 0.979219 0.000000 0.202805
vn 0.919340 0.000000 0.393464
vn 0.919340 0.000000 0.393463
vn 0.827072 0.000000 0.562096
vn 0.827073 0.000000 0.562095
vn 0.709457 0.000000 0.704749
vn 0.709457 0.000000 0.704749
vn 0.707107 0.000000 0.707107
vn 0.707107 0.000000 0.707107
vn 0.710904 0.000000 0.703289
vn 0.710904 0.000000 0.703289
vn 0.827072 0.000000 0.562096
vn 0.827072 0.000000 0.562096
vn 0.919342 0.000000 0.393460
vn 0.919342 0.000000 0.393460
vn 0.979220 0.000000 0.202802
vn 0.979220 0.000000 0.202802
vn 1.000000 0.000000 0.000000
vn 1.000000 0.000000 0.000000
vn 0.979220 0.000000 -0.202802
vn 0.979220 0.000000 -0.202802
vn 0.919342 0.000000 -0.393460
vn 0.919342 0.000000 -0.393460
vn 0.827071 0.000000 -0.562098
vn 0.827071 0.000000 -0.562098
vn 0.707106 0.000000 -0.707107
vn 0.707106 0.000000 -0.707108
vn 0.562098 0.000000 -0.827071
vn 0.562098 0.000000 -0.827070
vn 0.393462 0.000000 -0.919341
vn 0.393462 0.000000 -0.919341
vn 0.202803 0.000000 -0.979220
vn 0.202803 0.000000 -0.979220
vn 0.000000 0.000000 -1.000000
vn 0.000000 0.000000 -1.000000
vn -0.202803 0.000000 -0.979220
vn -0.202803 0.000000 -0.979220
vn -0.393462 0.000000 -0.919341
vn -0.393462 0.000000 -0.919341
vn -0.562098 0.000000 -0.827071
vn -0.562097 0.000000 -0.827071
vn -0.701675 0.000000 -0.712497
vn -0.701676 0.000000 -0.712497
vn -0.707106 0.000000 -0.707107
vn -0.707106 0.000000 -0.707107
s 1
g L_Piece
usemtl initialShadingGroup
f 58/114/1 59/115/2 57/113/3
f 59/115/2 60/116/4 57/113/3
f 60/116/4 61/117/5 57/113/3
f 61/117/5 62/118/6 57/113/3
f 62/118/6 63/119/7 57/113/3
f 63/119/7 64/120/8 57/113/3
f 64/120/8 65/121/9 57/113/3
f 65/121/9 66/122/10 57/113/3
f 57/113/3 66/122/10 112/168/11
f 68/124/12 69/125/13 67/123/14
f 69/125/13 70/126/15 67/123/14
f 70/126/15 71/127/16 67/123/14
f 71/127/16 72/128/17 67/123/14
f 72/128/17 73/129/18 67/123/14
f 73/129/18 74/130/19 67/123/14
f 74/130/19 75/131/20 67/123/14
f 75/131/20 76/132/21 67/123/14
f 76/132/21 77/133/22 67/123/14
f 77/133/22 78/134/23 67/123/14
f 78/134/23 79/135/24 67/123/14
f 79/135/24 80/136/25 67/123/14
f 80/136/25 81/137/26 67/123/14
f 81/137/26 82/138/27 67/123/14
f 82/138/27 83/139/28 67/123/14
f 83/139/28 84/140/29 67/123/14
f 84/140/29 85/141/30 67/123/14
f 67/123/14 85/141/30 66/122/10
f 85/141/30 86/142/31 66/122/10
f 86/142/31 87/143/32 66/122/10
f 87/143/32 88/144/33 66/122/10
f 88/144/33 89/145/34 66/122/10
f 89/145/34 90/146/35 66/122/10
f 90/146/35 91/147/36 66/122/10
f 66/122/10 91/147/36 112/168/11
f 91/147/36 92/148/37 112/168/11
f 92/148/37 93/149/38 112/168/11
f 93/149/38 94/150/39 112/168/11
f 94/150/39 95/151/40 112/168/11
f 112/168/11 95/151/40 111/167/41
f 95/151/40 96/152/42 111/167/41
f 96/152/42 97/153/43 111/167/41
f 97/153/43 98/154/44 111/167/41
f 98/154/44 99/155/45 111/167/41
f 99/155/45 100/156/46 111/167/41
f 100/156/46 101/157/47 111/167/41
f 101/157/47 102/158/48 111/167/41
f 102/158/48 103/159/49 111/167/41
f 103/159/49 104/160/50 111/167/41
f 104/160/50 105/161/51 111/167/41
f 105/161/51 106/162/52 111/167/41
f 106/162/52 107/163/53 111/167/41
f 107/163/53 108/164/54 111/167/41
f 111/167/41 108/164/54 110/166/55
f 108/164/54 109/165/56 110/166/55
s 3
f 1/112/57 2/111/58 56/57/59
f 56/57/59 2/111/58 55/58/60
f 2/111/58 3/110/61 55/58/60
f 3/110/61 4/109/62 55/58/60
f 4/109/62 5/108/63 55/58/60
f 5/108/63 6/107/64 55/58/60
f 6/107/64 7/106/65 55/58/60
f 7/106/65 8/105/66 55/58/60
f 8/105/66 9/104/67 55/58/60
f 9/104/67 10/103/68 55/58/60
f 10/103/68 11/102/69 55/58/60
f 11/102/69 12/101/70 55/58/60
f 12/101/70 13/100/71 55/58/60
f 13/100/71 14/99/72 55/58/60
f 14/99/72 15/98/73 55/58/60
f 15/98/73 16/97/74 55/58/60
f 16/97/74 17/96/75 55/58/60
f 17/96/75 18/95/76 55/58/60
f 18/95/76 19/94/77 55/58/60
f 19/94/77 20/93/78 55/58/60
f 20/93/78 21/92/79 55/58/60
f 21/92/79 22/91/80 55/58/60
f 22/91/80 23/90/81 55/58/60
f 23/90/81 24/89/82 55/58/60
f 24/89/82 25/88/83 55/58/60
f 55/58/60 25/88/83 54/59/84
f 54/59/84 25/88/83 53/60/85
f 53/60/85 25/88/83 52/61/86
f 52/61/86 25/88/83 51/62/87
f 51/62/87 25/88/83 50/63/88
f 50/63/88 25/88/83 49/64/89
f 49/64/89 25/88/83 48/65/90
f 48/65/90 25/88/83 47/66/91
f 25/88/83 26/87/92 47/66/91
f 47/66/91 26/87/92 46/67/93
f 26/87/92 27/86/94 46/67/93
f 27/86/94 28/85/95 46/67/93
f 28/85/95 29/84/96 46/67/93
f 46/67/93 29/84/96 45/68/97
f 29/84/96 30/83/98 45/68/97
f 30/83/98 31/82/99 45/68/97
f 31/82/99 32/81/100 45/68/97
f 32/81/100 33/80/101 45/68/97
f 33/80/101 34/79/102 45/68/97
f 34/79/102 35/78/103 45/68/97
f 35/78/103 36/77/104 45/68/97
f 36/77/104 37/76/105 45/68/97
f 37/76/105 38/75/106 45/68/97
f 38/75/106 39/74/107 45/68/97
f 39/74/107 40/73/108 45/68/97
f 40/73/108 41/72/109 45/68/97
f 41/72/109 42/71/110 45/68/97
f 45/68/97 42/71/110 44/69/111
f 42/71/110 43/70/112 44/69/111
s 4
f 56/1/113 55/2/114 57/113/115
f 57/113/115 55/2/114 58/114/116
f 55/2/114 54/3/117 58/114/116
f 58/114/116 54/3/117 59/115/118
f 54/3/117 53/4/119 59/115/118
f 59/115/118 53/4/119 60/116/120
f 53/4/119 52/5/121 60/116/120
f 60/116/120 52/5/121 61/117/122
f 52/5/121 51/6/123 61/117/122
f 61/117/122 51/6/123 62/118/124
f 51/6/123 50/7/125 62/118/124
f 62/118/124 50/7/125 63/119/126
f 50/7/125 49/8/127 63/119/126
f 63/119/126 49/8/127 64/120/128
f 49/8/127 48/9/129 64/120/128
f 64/120/128 48/9/129 65/121/130
f 48/9/129 47/10/131 65/121/130
f 65/121/130 47/10/131 66/122/132
f 47/10/131 46/11/133 66/122/132
f 66/122/132 46/11/133 67/123/134
f 46/11/133 45/12/135 67/123/134
f 67/123/134 45/12/135 68/124/136
f 45/12/135 44/13/137 68/124/136
f 68/124/136 44/13/137 69/125/138
f 44/13/137 43/14/139 69/125/138
f 69/125/138 43/14/139 70/126/140
f 43/14/139 42/15/141 70/126/140
f 70/126/140 42/15/141 71/127/142
f 42/15/141 41/16/143 71/127/142
f 71/127/142 41/16/143 72/128/144
f 41/16/143 40/17/145 72/128/144
f 72/128/144 40/17/145 73/129/146
f 40/17/145 39/18/147 73/129/146
f 73/129/146 39/18/147 74/130/148
f 39/18/147 38/19/149 74/130/148
f 74/130/148 38/19/149 75/131/150
f 38/19/149 37/20/151 75/131/150
f 75/131/150 37/20/151 76/132/152
f 37/20/151 36/21/153 76/132/152
f 76/132/152 36/21/153 77/133/154
f 36/21/153 35/22/155 77/133/154
f 77/133/154 35/22/155 78/134/156
f 35/22/155 34/23/157 78/134/156
f 78/134/156 34/23/157 79/135/158
f 34/23/157 33/24/159 79/135/158
f 79/135/158 33/24/159 80/136/160
f 33/24/159 32/25/161 80/136/160
f 80/136/160 32/25/161 81/137/162
f 32/25/161 31/26/163 81/137/162
f 81/137/162 31/26/163 82/138/164
f 31/26/163 30/27/165 82/138/164
f 82/138/164 30/27/165 83/139/166
f 30/27/165 29/28/167 83/139/166
f 83/139/166 29/28/167 84/140/168
f 29/28/167 28/29/169 84/140/168
f 84/140/168 28/29/169 85/141/170
f 28/29/169 27/30/171 85/141/170
f 85/141/170 27/30/171 86/142/172
f 27/30/171 26/31/173 86/142/172
f 86/142/172 26/31/173 87/143/174
f 26/31/173 25/32/175 87/143/174
f 87/143/174 25/32/175 88/144/176
f 25/32/175 24/33/177 88/144/176
f 88/144/176 24/33/177 89/145/178
f 24/33/177 23/34/179 89/145/178
f 89/145/178 23/34/179 90/146/180
f 23/34/179 22/35/181 90/146/180
f 90/146/180 22/35/181 91/147/182
f 22/35/181 21/36/183 91/147/182
f 91/147/182 21/36/183 92/148/184
f 21/36/183 20/37/185 92/148/184
f 92/148/184 20/37/185 93/149/186
f 20/37/185 19/38/187 93/149/186
f 93/149/186 19/38/187 94/150/188
f 19/38/187 18/39/189 94/150/188
f 94/150/188 18/39/189 95/151/190
f 18/39/189 17/40/191 95/151/190
f 95/151/190 17/40/191 96/152/192
f 17/40/191 16/41/193 96/152/192
f 96/152/192 16/41/193 97/153/194
f 16/41/193 15/42/195 97/153/194
f 97/153/194 15/42/195 98/154/196
f 15/42/195 14/43/197 98/154/196
f 98/154/196 14/43/197 99/155/198
f 14/43/197 13/44/199 99/155/198
f 99/155/198 13/44/199 100/156/200
f 13/44/199 12/45/201 100/156/200
f 100/156/200 12/45/201 101/157/202
f 12/45/201 11/46/203 101/157/202
f 101/157/202 11/46/203 102/158/204
f 11/46/203 10/47/205 102/158/204
f 102/158/204 10/47/205 103/159/206
f 10/47/205 9/48/207 103/159/206
f 103/159/206 9/48/207 104/160/208
f 9/48/207 8/49/209 104/160/208
f 104/160/208 8/49/209 105/161/210
f 8/49/209 7/50/211 105/161/210
f 105/161/210 7/50/211 106/162/212
f 7/50/211 6/51/213 106/162/212
f 106/162/212 6/51/213 107/163/214
f 6/51/213 5/52/215 107/163/214
f 107/163/214 5/52/215 108/164/216
f 5/52/215 4/53/217 108/164/216
f 108/164/216 4/53/217 109/165/218
f 4/53/217 3/54/219 109/165/218
f 109/165/218 3/54/219 110/166/220
f 3/54/219 2/55/221 110/166/220
f 110/166/220 2/55/221 111/167/222
f 2/55/221 1/56/223 111/167/222
f 111/167/222 1/56/223 112/168/224
f 1/56/223 56/1/113 112/168/224
f 112/168/224 56/1/113 57/113/115
